# xmcd
#
# Track frame offsets:
# 150
# 13617
# 32565
# 49467
# 67102
# 79068
# 96566
# 113069
# 129618
# 145917
# 164055
# 180129
# 194855
# 212507
# 231905
# 247830
# 260771
# 282125
# 295504
# 308344
# 338485
#
# Disc length: 4773 seconds
#
#
# Revision: 1
# Processed by: cddbd v1.5.2PL0 Copyright (c) Steve Scherf et al.
# Submitted via: FreeRIP 2.951 
#
DISCID=3112a315
DTITLE=Kenny Rogers - The Best Of Kenny Rogers  Disc 2
DYEAR=2005
DGENRE=
TTITLE0=Ruby, Don`t Take Your Love To Town
TTITLE1=She Believes In Me
TTITLE2=Desperado
TTITLE3=Lay Down Beside Me
TTITLE4=Blaze Of Glory
TTITLE5=Lady
TTITLE6=You Decorated My Life
TTITLE7=Love Will Turn You Around
TTITLE8=I Don`t Need You
TTITLE9=While The Feeling`s Good
TTITLE10=Just The Way You Are  Feat. Dottie West
TTITLE11=A Love Song
TTITLE12=Scarlet Fever
TTITLE13=Long Arm Of The Law
TTITLE14=Share Your Love With Me
TTITLE15=Love Or Something Like It
TTITLE16=Through The Years
TTITLE17=Puttin` In Overtime At Home
TTITLE18=Laura
TTITLE19=Kenny Rogers - You`ve Lost That Lovin` Feelin`  Feat. Dottie West
TTITLE20=
EXTD=
EXTT0=
EXTT1=
EXTT2=
EXTT3=
EXTT4=
EXTT5=
EXTT6=
EXTT7=
EXTT8=
EXTT9=
EXTT10=
EXTT11=
EXTT12=
EXTT13=
EXTT14=
EXTT15=
EXTT16=
EXTT17=
EXTT18=
EXTT19=
EXTT20=
PLAYORDER=
